mtllib arrow.mtl

v  20.000000 0.000000 0.000000
v  20.000000 0.000000 0.000000
v  20.000000 0.000000 0.000000
v  18.019226 -8.676783 0.000000
v  18.019226 -8.676783 0.000000
v  12.468275 -15.637676 0.000000
v  12.468275 -15.637676 0.000000
v  4.452136 -19.497794 0.000000
v  4.452136 -19.497794 0.000000
v  -4.452136 -19.497794 0.000000
v  -4.452136 -19.497794 0.000000
v  -12.468275 -15.637676 0.000000
v  -12.468275 -15.637676 0.000000
v  -18.019226 -8.676783 0.000000
v  -18.019226 -8.676783 0.000000
v  -20.000000 0.000000 0.000000
v  -20.000000 0.000000 0.000000
v  -20.000000 0.000000 0.000000
v  -18.019226 8.676783 0.000000
v  -18.019226 8.676783 0.000000
v  -12.468275 15.637676 0.000000
v  -12.468275 15.637676 0.000000
v  -4.452136 19.497794 0.000000
v  -4.452136 19.497794 0.000000
v  4.452136 19.497794 0.000000
v  4.452136 19.497794 0.000000
v  12.468275 15.637676 0.000000
v  12.468275 15.637676 0.000000
v  18.019226 8.676783 0.000000
v  18.019226 8.676783 0.000000
v  -20.000000 0.000000 -80.000000
v  -20.000000 0.000000 -80.000000
v  -20.000000 0.000000 -80.000000
v  -18.019226 8.676783 -80.000000
v  -18.019226 8.676783 -80.000000
v  -12.468275 15.637676 -80.000000
v  -12.468275 15.637676 -80.000000
v  -4.452136 19.497794 -80.000000
v  -4.452136 19.497794 -80.000000
v  4.452136 19.497794 -80.000000
v  4.452136 19.497794 -80.000000
v  12.468275 15.637676 -80.000000
v  12.468275 15.637676 -80.000000
v  18.019226 8.676783 -80.000000
v  18.019226 8.676783 -80.000000
v  20.000000 0.000000 -80.000000
v  20.000000 0.000000 -80.000000
v  20.000000 0.000000 -80.000000
v  40.000000 0.000000 -80.000000
v  40.000000 0.000000 -80.000000
v  40.000000 0.000000 -80.000000
v  37.587923 -13.679123 -80.000000
v  37.587923 -13.679123 -80.000000
v  30.640429 -25.712535 -80.000000
v  30.640429 -25.712535 -80.000000
v  20.000000 -34.641016 -80.000000
v  20.000000 -34.641016 -80.000000
v  6.947494 -39.391658 -80.000000
v  6.947494 -39.391658 -80.000000
v  -6.947494 -39.391658 -80.000000
v  -6.947494 -39.391658 -80.000000
v  -20.000000 -34.641016 -80.000000
v  -20.000000 -34.641016 -80.000000
v  -30.640429 -25.712535 -80.000000
v  -30.640429 -25.712535 -80.000000
v  -37.587923 -13.679123 -80.000000
v  -37.587923 -13.679123 -80.000000
v  -40.000000 0.000000 -80.000000
v  -40.000000 0.000000 -80.000000
v  -40.000000 0.000000 -80.000000
v  -37.587923 13.679123 -80.000000
v  -37.587923 13.679123 -80.000000
v  -30.640429 25.712535 -80.000000
v  -30.640429 25.712535 -80.000000
v  -20.000000 34.641016 -80.000000
v  -20.000000 34.641016 -80.000000
v  -6.947494 39.391658 -80.000000
v  -6.947494 39.391658 -80.000000
v  6.947494 39.391658 -80.000000
v  6.947494 39.391658 -80.000000
v  20.000000 34.641016 -80.000000
v  20.000000 34.641016 -80.000000
v  30.640429 25.712535 -80.000000
v  30.640429 25.712535 -80.000000
v  37.587923 13.679123 -80.000000
v  37.587923 13.679123 -80.000000
v  -18.019226 -8.676783 -80.000000
v  -18.019226 -8.676783 -80.000000
v  -12.468275 -15.637676 -80.000000
v  -12.468275 -15.637676 -80.000000
v  -4.452136 -19.497794 -80.000000
v  -4.452136 -19.497794 -80.000000
v  4.452136 -19.497794 -80.000000
v  4.452136 -19.497794 -80.000000
v  12.468275 -15.637676 -80.000000
v  12.468275 -15.637676 -80.000000
v  18.019226 -8.676783 -80.000000
v  18.019226 -8.676783 -80.000000
v  0.000000 0.000000 -150.000000
v  0.000000 0.000000 -150.000000
v  0.000000 0.000000 -150.000000
v  0.000000 0.000000 -150.000000

vt  0.750000 0.500000 0.000000
vt  0.750000 0.500000 0.000000
vt  0.750000 0.500000 0.000000
vt  0.725240 0.389865 0.000000
vt  0.725240 0.389865 0.000000
vt  0.655853 0.301510 0.000000
vt  0.655853 0.301510 0.000000
vt  0.555652 0.252514 0.000000
vt  0.555652 0.252514 0.000000
vt  0.444348 0.252514 0.000000
vt  0.444348 0.252514 0.000000
vt  0.344147 0.301510 0.000000
vt  0.344147 0.301510 0.000000
vt  0.274760 0.389865 0.000000
vt  0.274760 0.389865 0.000000
vt  0.250000 0.500000 0.000000
vt  0.250000 0.500000 0.000000
vt  0.250000 0.500000 0.000000
vt  0.274760 0.610135 0.000000
vt  0.274760 0.610135 0.000000
vt  0.344147 0.698490 0.000000
vt  0.344147 0.698490 0.000000
vt  0.444348 0.747486 0.000000
vt  0.444348 0.747486 0.000000
vt  0.555652 0.747486 0.000000
vt  0.555652 0.747486 0.000000
vt  0.655853 0.698490 0.000000
vt  0.655853 0.698490 0.000000
vt  0.725240 0.610135 0.000000
vt  0.725240 0.610135 0.000000
vt  0.250000 0.500000 0.000000
vt  0.250000 0.500000 0.000000
vt  0.250000 0.500000 0.000000
vt  0.274760 0.610135 0.000000
vt  0.274760 0.610135 0.000000
vt  0.344147 0.698490 0.000000
vt  0.344147 0.698490 0.000000
vt  0.444348 0.747486 0.000000
vt  0.444348 0.747486 0.000000
vt  0.555652 0.747486 0.000000
vt  0.555652 0.747486 0.000000
vt  0.655853 0.698490 0.000000
vt  0.655853 0.698490 0.000000
vt  0.725240 0.610135 0.000000
vt  0.725240 0.610135 0.000000
vt  0.750000 0.500000 0.000000
vt  0.750000 0.500000 0.000000
vt  0.750000 0.500000 0.000000
vt  1.000000 0.500000 0.000000
vt  1.000000 0.500000 0.000000
vt  1.000000 0.500000 0.000000
vt  0.969849 0.326370 0.000000
vt  0.969849 0.326370 0.000000
vt  0.883005 0.173630 0.000000
vt  0.883005 0.173630 0.000000
vt  0.750000 0.060300 0.000000
vt  0.750000 0.060300 0.000000
vt  0.586844 0.000000 0.000000
vt  0.586844 0.000000 0.000000
vt  0.413156 0.000000 0.000000
vt  0.413156 0.000000 0.000000
vt  0.250000 0.060300 0.000000
vt  0.250000 0.060300 0.000000
vt  0.116995 0.173630 0.000000
vt  0.116995 0.173630 0.000000
vt  0.030151 0.326370 0.000000
vt  0.030151 0.326370 0.000000
vt  0.000000 0.500000 0.000000
vt  0.000000 0.500000 0.000000
vt  0.000000 0.500000 0.000000
vt  0.030151 0.673630 0.000000
vt  0.030151 0.673630 0.000000
vt  0.116995 0.826370 0.000000
vt  0.116995 0.826370 0.000000
vt  0.250000 0.939700 0.000000
vt  0.250000 0.939700 0.000000
vt  0.413156 1.000000 0.000000
vt  0.413156 1.000000 0.000000
vt  0.586844 1.000000 0.000000
vt  0.586844 1.000000 0.000000
vt  0.750000 0.939700 0.000000
vt  0.750000 0.939700 0.000000
vt  0.883005 0.826370 0.000000
vt  0.883005 0.826370 0.000000
vt  0.969849 0.673630 0.000000
vt  0.969849 0.673630 0.000000
vt  0.274760 0.389865 0.000000
vt  0.274760 0.389865 0.000000
vt  0.344147 0.301510 0.000000
vt  0.344147 0.301510 0.000000
vt  0.444348 0.252514 0.000000
vt  0.444348 0.252514 0.000000
vt  0.555652 0.252514 0.000000
vt  0.555652 0.252514 0.000000
vt  0.655853 0.301510 0.000000
vt  0.655853 0.301510 0.000000
vt  0.725240 0.389865 0.000000
vt  0.725240 0.389865 0.000000
vt  0.500000 0.500000 0.000000
vt  0.500000 0.500000 0.000000
vt  0.500000 0.500000 0.000000
vt  0.500000 0.500000 0.000000

vn  0.000000 0.000000 1.000000
vn  1.000000 0.000000 0.000000
vn  1.000000 0.000000 0.000000
vn  0.000000 0.000000 1.000000
vn  0.900969 -0.433884 0.000000
vn  0.000000 0.000000 1.000000
vn  0.623490 -0.781831 0.000000
vn  0.000000 0.000000 1.000000
vn  0.222521 -0.974928 0.000000
vn  0.000000 0.000000 1.000000
vn  -0.222521 -0.974928 0.000000
vn  0.000000 0.000000 1.000000
vn  -0.623490 -0.781831 0.000000
vn  0.000000 0.000000 1.000000
vn  -0.900969 -0.433884 0.000000
vn  0.000000 0.000000 1.000000
vn  -1.000000 0.000000 0.000000
vn  -1.000000 -0.000000 0.000000
vn  0.000000 0.000000 1.000000
vn  -0.900969 0.433884 0.000000
vn  0.000000 0.000000 1.000000
vn  -0.623490 0.781831 0.000000
vn  0.000000 0.000000 1.000000
vn  -0.222521 0.974928 0.000000
vn  0.000000 0.000000 1.000000
vn  0.222521 0.974928 0.000000
vn  0.000000 0.000000 1.000000
vn  0.623490 0.781831 0.000000
vn  0.000000 0.000000 1.000000
vn  0.900969 0.433884 0.000000
vn  -1.000000 0.000000 0.000000
vn  0.000000 0.000000 1.000000
vn  -1.000000 -0.000000 0.000000
vn  -0.900969 0.433884 0.000000
vn  0.000000 0.000000 1.000000
vn  -0.623490 0.781831 0.000000
vn  0.000000 0.000000 1.000000
vn  -0.222521 0.974928 0.000000
vn  0.000000 0.000000 1.000000
vn  0.222521 0.974928 0.000000
vn  0.000000 0.000000 1.000000
vn  0.623490 0.781831 0.000000
vn  0.000000 0.000000 1.000000
vn  0.900969 0.433884 0.000000
vn  0.000000 0.000000 1.000000
vn  1.000000 0.000000 0.000000
vn  0.000000 0.000000 1.000000
vn  1.000000 0.000000 0.000000
vn  0.000000 0.000000 1.000000
vn  0.868243 0.000000 -0.496139
vn  0.868243 0.000000 -0.496139
vn  0.000000 0.000000 1.000000
vn  0.815882 -0.296957 -0.496139
vn  0.000000 0.000000 1.000000
vn  0.665113 -0.558096 -0.496139
vn  0.000000 0.000000 1.000000
vn  0.434122 -0.751921 -0.496139
vn  0.000000 0.000000 1.000000
vn  0.150769 -0.855053 -0.496139
vn  0.000000 0.000000 1.000000
vn  -0.150769 -0.855053 -0.496139
vn  0.000000 0.000000 1.000000
vn  -0.434122 -0.751921 -0.496139
vn  0.000000 0.000000 1.000000
vn  -0.665113 -0.558096 -0.496139
vn  0.000000 0.000000 1.000000
vn  -0.815882 -0.296957 -0.496139
vn  0.000000 0.000000 1.000000
vn  -0.868243 0.000000 -0.496139
vn  -0.868243 -0.000000 -0.496139
vn  0.000000 0.000000 1.000000
vn  -0.815882 0.296957 -0.496139
vn  0.000000 0.000000 1.000000
vn  -0.665113 0.558096 -0.496139
vn  0.000000 0.000000 1.000000
vn  -0.434122 0.751921 -0.496139
vn  0.000000 0.000000 1.000000
vn  -0.150769 0.855053 -0.496139
vn  0.000000 0.000000 1.000000
vn  0.150769 0.855053 -0.496139
vn  0.000000 0.000000 1.000000
vn  0.434122 0.751921 -0.496139
vn  0.000000 0.000000 1.000000
vn  0.665113 0.558096 -0.496139
vn  0.000000 0.000000 1.000000
vn  0.815882 0.296957 -0.496139
vn  0.000000 0.000000 1.000000
vn  -0.900969 -0.433884 0.000000
vn  0.000000 0.000000 1.000000
vn  -0.623490 -0.781831 0.000000
vn  0.000000 0.000000 1.000000
vn  -0.222521 -0.974928 0.000000
vn  0.000000 0.000000 1.000000
vn  0.222521 -0.974928 0.000000
vn  0.000000 0.000000 1.000000
vn  0.623490 -0.781831 0.000000
vn  0.000000 0.000000 1.000000
vn  0.900969 -0.433884 0.000000
vn  -0.868243 0.000000 -0.496139
vn  0.868243 0.000000 -0.496139
vn  0.868243 0.000000 -0.496139
vn  -0.868243 -0.000000 -0.496139


g 0
g 1
usemtl DEFAULT_MTL
f 14/14/14  4/4/4  1/1/1
f 48/48/48  3/3/3  5/5/5
f 16/16/16  14/14/14  1/1/1
f 29/29/29  16/16/16  1/1/1
f 44/44/44  30/30/30  2/2/2
f 46/46/46  44/44/44  2/2/2
f 12/12/12  6/6/6  4/4/4
f 98/98/98  5/5/5  7/7/7
f 14/14/14  12/12/12  4/4/4
f 98/98/98  48/48/48  5/5/5
f 10/10/10  8/8/8  6/6/6
f 96/96/96  7/7/7  9/9/9
f 12/12/12  10/10/10  6/6/6
f 98/98/98  7/7/7  96/96/96
f 94/94/94  9/9/9  11/11/11
f 96/96/96  9/9/9  94/94/94
f 92/92/92  11/11/11  13/13/13
f 94/94/94  11/11/11  92/92/92
f 90/90/90  13/13/13  15/15/15
f 92/92/92  13/13/13  90/90/90
f 88/88/88  15/15/15  18/18/18
f 90/90/90  15/15/15  88/88/88
f 29/29/29  19/19/19  16/16/16
f 31/31/31  17/17/17  20/20/20
f 88/88/88  18/18/18  33/33/33
f 27/27/27  21/21/21  19/19/19
f 34/34/34  20/20/20  22/22/22
f 29/29/29  27/27/27  19/19/19
f 34/34/34  31/31/31  20/20/20
f 25/25/25  23/23/23  21/21/21
f 36/36/36  22/22/22  24/24/24
f 27/27/27  25/25/25  21/21/21
f 36/36/36  34/34/34  22/22/22
f 38/38/38  24/24/24  26/26/26
f 38/38/38  36/36/36  24/24/24
f 40/40/40  26/26/26  28/28/28
f 40/40/40  38/38/38  26/26/26
f 42/42/42  28/28/28  30/30/30
f 42/42/42  40/40/40  28/28/28
f 44/44/44  42/42/42  30/30/30
f 68/68/68  32/32/32  35/35/35
f 68/68/68  66/66/66  32/32/32
f 87/87/87  32/32/32  66/66/66
f 71/71/71  35/35/35  37/37/37
f 71/71/71  68/68/68  35/35/35
f 71/71/71  37/37/37  39/39/39
f 83/83/83  39/39/39  41/41/41
f 83/83/83  71/71/71  39/39/39
f 83/83/83  41/41/41  43/43/43
f 85/85/85  43/43/43  45/45/45
f 85/85/85  83/83/83  43/43/43
f 85/85/85  45/45/45  47/47/47
f 85/85/85  47/47/47  49/49/49
f 97/97/97  49/49/49  47/47/47
f 97/97/97  52/52/52  49/49/49
f 101/101/101  51/51/51  53/53/53
f 99/99/99  86/86/86  50/50/50
f 64/64/64  54/54/54  52/52/52
f 101/101/101  53/53/53  55/55/55
f 93/93/93  64/64/64  52/52/52
f 95/95/95  93/93/93  52/52/52
f 97/97/97  95/95/95  52/52/52
f 62/62/62  56/56/56  54/54/54
f 101/101/101  55/55/55  57/57/57
f 64/64/64  62/62/62  54/54/54
f 60/60/60  58/58/58  56/56/56
f 101/101/101  57/57/57  59/59/59
f 62/62/62  60/60/60  56/56/56
f 101/101/101  59/59/59  61/61/61
f 101/101/101  61/61/61  63/63/63
f 101/101/101  63/63/63  65/65/65
f 89/89/89  66/66/66  64/64/64
f 101/101/101  65/65/65  67/67/67
f 91/91/91  89/89/89  64/64/64
f 93/93/93  91/91/91  64/64/64
f 101/101/101  67/67/67  70/70/70
f 89/89/89  87/87/87  66/66/66
f 99/99/99  69/69/69  72/72/72
f 83/83/83  73/73/73  71/71/71
f 99/99/99  72/72/72  74/74/74
f 81/81/81  75/75/75  73/73/73
f 99/99/99  74/74/74  76/76/76
f 83/83/83  81/81/81  73/73/73
f 79/79/79  77/77/77  75/75/75
f 99/99/99  76/76/76  78/78/78
f 81/81/81  79/79/79  75/75/75
f 99/99/99  78/78/78  80/80/80
f 99/99/99  80/80/80  82/82/82
f 99/99/99  82/82/82  84/84/84
f 99/99/99  84/84/84  86/86/86
