mtllib e.mtl

v  0.000000 0.000000 0.000000
v  0.000000 0.000000 0.000000
v  0.000000 0.000000 0.000000
v  100.000000 0.000000 0.000000
v  100.000000 0.000000 0.000000
v  100.000000 0.000000 0.000000
v  100.000000 0.000000 -18.310311
v  100.000000 0.000000 -18.310311
v  100.000000 0.000000 -18.310311
v  37.613103 0.000000 -18.310311
v  37.613103 0.000000 -18.310311
v  37.613103 0.000000 -18.310311
v  37.613103 0.000000 -39.674238
v  37.613103 0.000000 -39.674238
v  37.613103 0.000000 -39.674238
v  100.000000 0.000000 -39.674238
v  100.000000 0.000000 -39.674238
v  100.000000 0.000000 -39.674238
v  100.000000 0.000000 -57.984549
v  100.000000 0.000000 -57.984549
v  100.000000 0.000000 -57.984549
v  37.613103 0.000000 -57.984549
v  37.613103 0.000000 -57.984549
v  37.613103 0.000000 -57.984549
v  37.613103 0.000000 -81.689689
v  37.613103 0.000000 -81.689689
v  37.613103 0.000000 -81.689689
v  100.000000 0.000000 -81.689689
v  100.000000 0.000000 -81.689689
v  100.000000 0.000000 -81.689689
v  100.000000 0.000000 -100.000000
v  100.000000 0.000000 -100.000000
v  100.000000 0.000000 -100.000000
v  0.000000 0.000000 -100.000000
v  0.000000 0.000000 -100.000000
v  0.000000 0.000000 -100.000000
v  0.000000 10.000000 0.000000
v  0.000000 10.000000 0.000000
v  0.000000 10.000000 0.000000
v  0.000000 10.000000 -100.000000
v  0.000000 10.000000 -100.000000
v  0.000000 10.000000 -100.000000
v  100.000000 10.000000 -100.000000
v  100.000000 10.000000 -100.000000
v  100.000000 10.000000 -100.000000
v  100.000000 10.000000 -81.689689
v  100.000000 10.000000 -81.689689
v  100.000000 10.000000 -81.689689
v  37.613103 10.000000 -81.689689
v  37.613103 10.000000 -81.689689
v  37.613103 10.000000 -81.689689
v  37.613103 10.000000 -57.984549
v  37.613103 10.000000 -57.984549
v  37.613103 10.000000 -57.984549
v  100.000000 10.000000 -57.984549
v  100.000000 10.000000 -57.984549
v  100.000000 10.000000 -57.984549
v  100.000000 10.000000 -39.674238
v  100.000000 10.000000 -39.674238
v  100.000000 10.000000 -39.674238
v  37.613103 10.000000 -39.674238
v  37.613103 10.000000 -39.674238
v  37.613103 10.000000 -39.674238
v  37.613103 10.000000 -18.310311
v  37.613103 10.000000 -18.310311
v  37.613103 10.000000 -18.310311
v  100.000000 10.000000 -18.310311
v  100.000000 10.000000 -18.310311
v  100.000000 10.000000 -18.310311
v  100.000000 10.000000 0.000000
v  100.000000 10.000000 0.000000
v  100.000000 10.000000 0.000000

vt  1.000000 0.000000 0.000000
vt  1.000000 0.000000 0.000000
vt  1.000000 0.000000 0.000000
vt  1.000000 1.000000 0.000000
vt  1.000000 1.000000 0.000000
vt  1.000000 1.000000 0.000000
vt  0.816897 1.000000 0.000000
vt  0.816897 1.000000 0.000000
vt  0.816897 1.000000 0.000000
vt  0.816897 0.376131 0.000000
vt  0.816897 0.376131 0.000000
vt  0.816897 0.376131 0.000000
vt  0.603258 0.376131 0.000000
vt  0.603258 0.376131 0.000000
vt  0.603258 0.376131 0.000000
vt  0.603258 1.000000 0.000000
vt  0.603258 1.000000 0.000000
vt  0.603258 1.000000 0.000000
vt  0.420155 1.000000 0.000000
vt  0.420155 1.000000 0.000000
vt  0.420155 1.000000 0.000000
vt  0.420155 0.376131 0.000000
vt  0.420155 0.376131 0.000000
vt  0.420155 0.376131 0.000000
vt  0.183103 0.376131 0.000000
vt  0.183103 0.376131 0.000000
vt  0.183103 0.376131 0.000000
vt  0.183103 1.000000 0.000000
vt  0.183103 1.000000 0.000000
vt  0.183103 1.000000 0.000000
vt  0.000000 1.000000 0.000000
vt  0.000000 1.000000 0.000000
vt  0.000000 1.000000 0.000000
vt  0.000000 0.000000 0.000000
vt  0.000000 0.000000 0.000000
vt  0.000000 0.000000 0.000000
vt  1.000000 0.000000 0.000000
vt  1.000000 0.000000 0.000000
vt  1.000000 0.000000 0.000000
vt  0.000000 0.000000 0.000000
vt  0.000000 0.000000 0.000000
vt  0.000000 0.000000 0.000000
vt  0.000000 1.000000 0.000000
vt  0.000000 1.000000 0.000000
vt  0.000000 1.000000 0.000000
vt  0.183103 1.000000 0.000000
vt  0.183103 1.000000 0.000000
vt  0.183103 1.000000 0.000000
vt  0.183103 0.376131 0.000000
vt  0.183103 0.376131 0.000000
vt  0.183103 0.376131 0.000000
vt  0.420155 0.376131 0.000000
vt  0.420155 0.376131 0.000000
vt  0.420155 0.376131 0.000000
vt  0.420155 1.000000 0.000000
vt  0.420155 1.000000 0.000000
vt  0.420155 1.000000 0.000000
vt  0.603258 1.000000 0.000000
vt  0.603258 1.000000 0.000000
vt  0.603258 1.000000 0.000000
vt  0.603258 0.376131 0.000000
vt  0.603258 0.376131 0.000000
vt  0.603258 0.376131 0.000000
vt  0.816897 0.376131 0.000000
vt  0.816897 0.376131 0.000000
vt  0.816897 0.376131 0.000000
vt  0.816897 1.000000 0.000000
vt  0.816897 1.000000 0.000000
vt  0.816897 1.000000 0.000000
vt  1.000000 1.000000 0.000000
vt  1.000000 1.000000 0.000000
vt  1.000000 1.000000 0.000000

vn  0.000000 -1.000000 0.000000
vn  0.000000 0.000000 1.000000
vn  -1.000000 0.000000 0.000000
vn  0.000000 -1.000000 0.000000
vn  0.000000 0.000000 1.000000
vn  1.000000 0.000000 0.000000
vn  0.000000 -1.000000 0.000000
vn  1.000000 0.000000 0.000000
vn  0.000000 0.000000 -1.000000
vn  0.000000 -1.000000 0.000000
vn  0.000000 0.000000 -1.000000
vn  1.000000 0.000000 0.000000
vn  0.000000 -1.000000 0.000000
vn  1.000000 0.000000 0.000000
vn  0.000000 0.000000 1.000000
vn  0.000000 -1.000000 0.000000
vn  0.000000 0.000000 1.000000
vn  1.000000 0.000000 0.000000
vn  0.000000 -1.000000 0.000000
vn  1.000000 0.000000 0.000000
vn  0.000000 0.000000 -1.000000
vn  0.000000 -1.000000 0.000000
vn  0.000000 0.000000 -1.000000
vn  1.000000 0.000000 0.000000
vn  0.000000 -1.000000 0.000000
vn  1.000000 0.000000 0.000000
vn  0.000000 0.000000 1.000000
vn  0.000000 -1.000000 0.000000
vn  0.000000 0.000000 1.000000
vn  1.000000 0.000000 0.000000
vn  0.000000 -1.000000 0.000000
vn  1.000000 0.000000 0.000000
vn  0.000000 0.000000 -1.000000
vn  0.000000 -1.000000 0.000000
vn  0.000000 0.000000 -1.000000
vn  -1.000000 0.000000 0.000000
vn  0.000000 1.000000 0.000000
vn  0.000000 0.000000 1.000000
vn  -1.000000 0.000000 0.000000
vn  0.000000 1.000000 0.000000
vn  0.000000 0.000000 -1.000000
vn  -1.000000 0.000000 0.000000
vn  0.000000 1.000000 0.000000
vn  1.000000 0.000000 0.000000
vn  0.000000 0.000000 -1.000000
vn  0.000000 1.000000 0.000000
vn  0.000000 0.000000 1.000000
vn  1.000000 0.000000 0.000000
vn  0.000000 1.000000 0.000000
vn  1.000000 0.000000 0.000000
vn  0.000000 0.000000 1.000000
vn  0.000000 1.000000 0.000000
vn  0.000000 0.000000 -1.000000
vn  1.000000 0.000000 0.000000
vn  0.000000 1.000000 0.000000
vn  1.000000 0.000000 0.000000
vn  0.000000 0.000000 -1.000000
vn  0.000000 1.000000 0.000000
vn  0.000000 0.000000 1.000000
vn  1.000000 0.000000 0.000000
vn  0.000000 1.000000 0.000000
vn  1.000000 0.000000 0.000000
vn  0.000000 0.000000 1.000000
vn  0.000000 1.000000 0.000000
vn  0.000000 0.000000 -1.000000
vn  1.000000 0.000000 0.000000
vn  0.000000 1.000000 0.000000
vn  1.000000 0.000000 0.000000
vn  0.000000 0.000000 -1.000000
vn  0.000000 1.000000 0.000000
vn  0.000000 0.000000 1.000000
vn  1.000000 0.000000 0.000000


g 0
g 1
usemtl DEFAULT_MTL
f 10/10/10  4/4/4  1/1/1
f 38/38/38  2/2/2  5/5/5
f 34/34/34  10/10/10  1/1/1
f 42/42/42  36/36/36  3/3/3
f 42/42/42  3/3/3  39/39/39
f 10/10/10  7/7/7  4/4/4
f 72/72/72  6/6/6  8/8/8
f 71/71/71  38/38/38  5/5/5
f 69/69/69  9/9/9  11/11/11
f 72/72/72  8/8/8  68/68/68
f 34/34/34  13/13/13  10/10/10
f 66/66/66  12/12/12  14/14/14
f 69/69/69  11/11/11  65/65/65
f 22/22/22  16/16/16  13/13/13
f 63/63/63  15/15/15  17/17/17
f 34/34/34  22/22/22  13/13/13
f 66/66/66  14/14/14  62/62/62
f 22/22/22  19/19/19  16/16/16
f 60/60/60  18/18/18  20/20/20
f 63/63/63  17/17/17  59/59/59
f 57/57/57  21/21/21  23/23/23
f 60/60/60  20/20/20  56/56/56
f 34/34/34  25/25/25  22/22/22
f 54/54/54  24/24/24  26/26/26
f 57/57/57  23/23/23  53/53/53
f 34/34/34  28/28/28  25/25/25
f 51/51/51  27/27/27  29/29/29
f 54/54/54  26/26/26  50/50/50
f 34/34/34  31/31/31  28/28/28
f 48/48/48  30/30/30  32/32/32
f 51/51/51  29/29/29  47/47/47
f 45/45/45  33/33/33  35/35/35
f 48/48/48  32/32/32  44/44/44
f 45/45/45  35/35/35  41/41/41
f 49/49/49  40/40/40  37/37/37
f 52/52/52  49/49/49  37/37/37
f 61/61/61  52/52/52  37/37/37
f 64/64/64  61/61/61  37/37/37
f 67/67/67  64/64/64  37/37/37
f 70/70/70  67/67/67  37/37/37
f 49/49/49  43/43/43  40/40/40
f 49/49/49  46/46/46  43/43/43
f 61/61/61  55/55/55  52/52/52
f 61/61/61  58/58/58  55/55/55
