mtllib q.mtl

v  0.000000 0.000000 0.000000
v  0.000000 0.000000 0.000000
v  0.000000 0.000000 0.000000
v  74.156370 0.000000 0.000000
v  74.156370 0.000000 0.000000
v  74.156370 0.000000 0.000000
v  74.156370 0.000000 -9.784386
v  74.156370 0.000000 -9.784386
v  74.156370 0.000000 -9.784386
v  84.983632 0.000000 0.000000
v  84.983632 0.000000 0.000000
v  84.983632 0.000000 0.000000
v  100.000000 0.000000 0.000000
v  100.000000 0.000000 0.000000
v  100.000000 0.000000 0.000000
v  100.000000 0.000000 -9.784386
v  100.000000 0.000000 -9.784386
v  100.000000 0.000000 -9.784386
v  74.156370 0.000000 -33.138773
v  74.156370 0.000000 -33.138773
v  74.156370 0.000000 -33.138773
v  74.156370 0.000000 -100.000000
v  74.156370 0.000000 -100.000000
v  74.156370 0.000000 -100.000000
v  0.000000 0.000000 -100.000000
v  0.000000 0.000000 -100.000000
v  0.000000 0.000000 -100.000000
v  19.525628 0.000000 -21.095477
v  19.525628 0.000000 -21.095477
v  19.525628 0.000000 -21.095477
v  19.525628 0.000000 -81.691644
v  19.525628 0.000000 -81.691644
v  19.525628 0.000000 -81.691644
v  54.533258 0.000000 -81.691644
v  54.533258 0.000000 -81.691644
v  54.533258 0.000000 -81.691644
v  54.533258 0.000000 -50.871797
v  54.533258 0.000000 -50.871797
v  54.533258 0.000000 -50.871797
v  43.230346 0.000000 -61.086019
v  43.230346 0.000000 -61.086019
v  43.230346 0.000000 -61.086019
v  43.230346 0.000000 -51.301632
v  43.230346 0.000000 -51.301632
v  43.230346 0.000000 -51.301632
v  43.230346 0.000000 -37.731632
v  43.230346 0.000000 -37.731632
v  43.230346 0.000000 -37.731632
v  54.533258 0.000000 -27.517410
v  54.533258 0.000000 -27.517410
v  54.533258 0.000000 -27.517410
v  54.533258 0.000000 -21.091234
v  54.533258 0.000000 -21.091234
v  54.533258 0.000000 -21.091234
v  0.000000 10.000000 0.000000
v  0.000000 10.000000 0.000000
v  0.000000 10.000000 0.000000
v  0.000000 10.000000 -100.000000
v  0.000000 10.000000 -100.000000
v  0.000000 10.000000 -100.000000
v  74.156370 10.000000 -100.000000
v  74.156370 10.000000 -100.000000
v  74.156370 10.000000 -100.000000
v  74.156370 10.000000 -33.138773
v  74.156370 10.000000 -33.138773
v  74.156370 10.000000 -33.138773
v  100.000000 10.000000 -9.784386
v  100.000000 10.000000 -9.784386
v  100.000000 10.000000 -9.784386
v  100.000000 10.000000 0.000000
v  100.000000 10.000000 0.000000
v  100.000000 10.000000 0.000000
v  84.983632 10.000000 0.000000
v  84.983632 10.000000 0.000000
v  84.983632 10.000000 0.000000
v  74.156370 10.000000 -9.784386
v  74.156370 10.000000 -9.784386
v  74.156370 10.000000 -9.784386
v  74.156370 10.000000 0.000000
v  74.156370 10.000000 0.000000
v  74.156370 10.000000 0.000000
v  19.525628 10.000000 -21.095477
v  19.525628 10.000000 -21.095477
v  19.525628 10.000000 -21.095477
v  54.533258 10.000000 -21.091234
v  54.533258 10.000000 -21.091234
v  54.533258 10.000000 -21.091234
v  54.533258 10.000000 -27.517410
v  54.533258 10.000000 -27.517410
v  54.533258 10.000000 -27.517410
v  43.230346 10.000000 -37.731632
v  43.230346 10.000000 -37.731632
v  43.230346 10.000000 -37.731632
v  43.230346 10.000000 -51.301632
v  43.230346 10.000000 -51.301632
v  43.230346 10.000000 -51.301632
v  43.230346 10.000000 -61.086019
v  43.230346 10.000000 -61.086019
v  43.230346 10.000000 -61.086019
v  54.533258 10.000000 -50.871797
v  54.533258 10.000000 -50.871797
v  54.533258 10.000000 -50.871797
v  54.533258 10.000000 -81.691644
v  54.533258 10.000000 -81.691644
v  54.533258 10.000000 -81.691644
v  19.525628 10.000000 -81.691644
v  19.525628 10.000000 -81.691644
v  19.525628 10.000000 -81.691644

vt  1.000000 0.000000 0.000000
vt  1.000000 0.000000 0.000000
vt  1.000000 0.000000 0.000000
vt  1.000000 0.741564 0.000000
vt  1.000000 0.741564 0.000000
vt  1.000000 0.741564 0.000000
vt  0.902156 0.741564 0.000000
vt  0.902156 0.741564 0.000000
vt  0.902156 0.741564 0.000000
vt  1.000000 0.849836 0.000000
vt  1.000000 0.849836 0.000000
vt  1.000000 0.849836 0.000000
vt  1.000000 1.000000 0.000000
vt  1.000000 1.000000 0.000000
vt  1.000000 1.000000 0.000000
vt  0.902156 1.000000 0.000000
vt  0.902156 1.000000 0.000000
vt  0.902156 1.000000 0.000000
vt  0.668612 0.741564 0.000000
vt  0.668612 0.741564 0.000000
vt  0.668612 0.741564 0.000000
vt  0.000000 0.741564 0.000000
vt  0.000000 0.741564 0.000000
vt  0.000000 0.741564 0.000000
vt  0.000000 0.000000 0.000000
vt  0.000000 0.000000 0.000000
vt  0.000000 0.000000 0.000000
vt  0.789045 0.195256 0.000000
vt  0.789045 0.195256 0.000000
vt  0.789045 0.195256 0.000000
vt  0.183084 0.195256 0.000000
vt  0.183084 0.195256 0.000000
vt  0.183084 0.195256 0.000000
vt  0.183084 0.545333 0.000000
vt  0.183084 0.545333 0.000000
vt  0.183084 0.545333 0.000000
vt  0.491282 0.545333 0.000000
vt  0.491282 0.545333 0.000000
vt  0.491282 0.545333 0.000000
vt  0.389140 0.432303 0.000000
vt  0.389140 0.432303 0.000000
vt  0.389140 0.432303 0.000000
vt  0.486984 0.432303 0.000000
vt  0.486984 0.432303 0.000000
vt  0.486984 0.432303 0.000000
vt  0.622684 0.432303 0.000000
vt  0.622684 0.432303 0.000000
vt  0.622684 0.432303 0.000000
vt  0.724826 0.545333 0.000000
vt  0.724826 0.545333 0.000000
vt  0.724826 0.545333 0.000000
vt  0.789088 0.545333 0.000000
vt  0.789088 0.545333 0.000000
vt  0.789088 0.545333 0.000000
vt  1.000000 0.000000 0.000000
vt  1.000000 0.000000 0.000000
vt  1.000000 0.000000 0.000000
vt  0.000000 0.000000 0.000000
vt  0.000000 0.000000 0.000000
vt  0.000000 0.000000 0.000000
vt  0.000000 0.741564 0.000000
vt  0.000000 0.741564 0.000000
vt  0.000000 0.741564 0.000000
vt  0.668612 0.741564 0.000000
vt  0.668612 0.741564 0.000000
vt  0.668612 0.741564 0.000000
vt  0.902156 1.000000 0.000000
vt  0.902156 1.000000 0.000000
vt  0.902156 1.000000 0.000000
vt  1.000000 1.000000 0.000000
vt  1.000000 1.000000 0.000000
vt  1.000000 1.000000 0.000000
vt  1.000000 0.849836 0.000000
vt  1.000000 0.849836 0.000000
vt  1.000000 0.849836 0.000000
vt  0.902156 0.741564 0.000000
vt  0.902156 0.741564 0.000000
vt  0.902156 0.741564 0.000000
vt  1.000000 0.741564 0.000000
vt  1.000000 0.741564 0.000000
vt  1.000000 0.741564 0.000000
vt  0.789045 0.195256 0.000000
vt  0.789045 0.195256 0.000000
vt  0.789045 0.195256 0.000000
vt  0.789088 0.545333 0.000000
vt  0.789088 0.545333 0.000000
vt  0.789088 0.545333 0.000000
vt  0.724826 0.545333 0.000000
vt  0.724826 0.545333 0.000000
vt  0.724826 0.545333 0.000000
vt  0.622684 0.432303 0.000000
vt  0.622684 0.432303 0.000000
vt  0.622684 0.432303 0.000000
vt  0.486984 0.432303 0.000000
vt  0.486984 0.432303 0.000000
vt  0.486984 0.432303 0.000000
vt  0.389140 0.432303 0.000000
vt  0.389140 0.432303 0.000000
vt  0.389140 0.432303 0.000000
vt  0.491282 0.545333 0.000000
vt  0.491282 0.545333 0.000000
vt  0.491282 0.545333 0.000000
vt  0.183084 0.545333 0.000000
vt  0.183084 0.545333 0.000000
vt  0.183084 0.545333 0.000000
vt  0.183084 0.195256 0.000000
vt  0.183084 0.195256 0.000000
vt  0.183084 0.195256 0.000000

vn  0.000000 -1.000000 0.000000
vn  0.000000 0.000000 1.000000
vn  -1.000000 0.000000 0.000000
vn  0.000000 -1.000000 0.000000
vn  0.000000 0.000000 1.000000
vn  1.000000 0.000000 0.000000
vn  0.000000 -1.000000 0.000000
vn  1.000000 0.000000 0.000000
vn  -0.670472 0.000000 0.741935
vn  0.000000 -1.000000 0.000000
vn  -0.670472 0.000000 0.741935
vn  0.000000 0.000000 1.000000
vn  0.000000 -1.000000 0.000000
vn  0.000000 0.000000 1.000000
vn  1.000000 0.000000 0.000000
vn  0.000000 -1.000000 0.000000
vn  1.000000 0.000000 0.000000
vn  0.670472 0.000000 -0.741935
vn  0.000000 -1.000000 0.000000
vn  0.670472 0.000000 -0.741935
vn  1.000000 0.000000 0.000000
vn  0.000000 -1.000000 0.000000
vn  1.000000 0.000000 0.000000
vn  0.000000 0.000000 -1.000000
vn  0.000000 -1.000000 0.000000
vn  0.000000 0.000000 -1.000000
vn  -1.000000 0.000000 0.000000
vn  0.000000 -1.000000 0.000000
vn  1.000000 0.000000 0.000000
vn  0.000121 0.000000 -1.000000
vn  0.000000 -1.000000 0.000000
vn  1.000000 0.000000 0.000000
vn  0.000000 0.000000 1.000000
vn  0.000000 -1.000000 0.000000
vn  0.000000 0.000000 1.000000
vn  -1.000000 0.000000 0.000000
vn  0.000000 -1.000000 0.000000
vn  -1.000000 0.000000 0.000000
vn  0.670472 0.000000 -0.741935
vn  0.000000 -1.000000 0.000000
vn  0.670472 0.000000 -0.741935
vn  -1.000000 0.000000 0.000000
vn  0.000000 -1.000000 0.000000
vn  -1.000000 0.000000 0.000000
vn  -1.000000 0.000000 0.000000
vn  0.000000 -1.000000 0.000000
vn  -1.000000 0.000000 0.000000
vn  -0.670472 0.000000 0.741935
vn  0.000000 -1.000000 0.000000
vn  -0.670472 0.000000 0.741935
vn  -1.000000 0.000000 0.000000
vn  0.000000 -1.000000 0.000000
vn  -1.000000 0.000000 0.000000
vn  0.000121 0.000000 -1.000000
vn  0.000000 1.000000 0.000000
vn  0.000000 0.000000 1.000000
vn  -1.000000 0.000000 0.000000
vn  0.000000 1.000000 0.000000
vn  0.000000 0.000000 -1.000000
vn  -1.000000 0.000000 0.000000
vn  0.000000 1.000000 0.000000
vn  1.000000 0.000000 0.000000
vn  0.000000 0.000000 -1.000000
vn  0.000000 1.000000 0.000000
vn  0.670472 0.000000 -0.741935
vn  1.000000 0.000000 0.000000
vn  0.000000 1.000000 0.000000
vn  1.000000 0.000000 0.000000
vn  0.670472 0.000000 -0.741935
vn  0.000000 1.000000 0.000000
vn  0.000000 0.000000 1.000000
vn  1.000000 0.000000 0.000000
vn  0.000000 1.000000 0.000000
vn  -0.670472 0.000000 0.741935
vn  0.000000 0.000000 1.000000
vn  0.000000 1.000000 0.000000
vn  1.000000 0.000000 0.000000
vn  -0.670472 0.000000 0.741935
vn  0.000000 1.000000 0.000000
vn  0.000000 0.000000 1.000000
vn  1.000000 0.000000 0.000000
vn  0.000000 1.000000 0.000000
vn  1.000000 0.000000 0.000000
vn  0.000121 0.000000 -1.000000
vn  0.000000 1.000000 0.000000
vn  -1.000000 0.000000 0.000000
vn  0.000121 0.000000 -1.000000
vn  0.000000 1.000000 0.000000
vn  -0.670472 0.000000 0.741935
vn  -1.000000 0.000000 0.000000
vn  0.000000 1.000000 0.000000
vn  -1.000000 0.000000 0.000000
vn  -0.670472 0.000000 0.741935
vn  0.000000 1.000000 0.000000
vn  -1.000000 0.000000 0.000000
vn  -1.000000 0.000000 0.000000
vn  0.000000 1.000000 0.000000
vn  0.670472 0.000000 -0.741935
vn  -1.000000 0.000000 0.000000
vn  0.000000 1.000000 0.000000
vn  -1.000000 0.000000 0.000000
vn  0.670472 0.000000 -0.741935
vn  0.000000 1.000000 0.000000
vn  0.000000 0.000000 1.000000
vn  -1.000000 0.000000 0.000000
vn  0.000000 1.000000 0.000000
vn  1.000000 0.000000 0.000000
vn  0.000000 0.000000 1.000000


g 0
g 1
usemtl DEFAULT_MTL
f 28/28/28  4/4/4  1/1/1
f 56/56/56  2/2/2  5/5/5
f 28/28/28  1/1/1  25/25/25
f 60/60/60  27/27/27  3/3/3
f 60/60/60  3/3/3  57/57/57
f 28/28/28  7/7/7  4/4/4
f 77/77/77  6/6/6  8/8/8
f 80/80/80  56/56/56  5/5/5
f 81/81/81  6/6/6  77/77/77
f 13/13/13  10/10/10  7/7/7
f 78/78/78  9/9/9  11/11/11
f 16/16/16  13/13/13  7/7/7
f 28/28/28  16/16/16  7/7/7
f 75/75/75  12/12/12  14/14/14
f 78/78/78  11/11/11  74/74/74
f 68/68/68  15/15/15  17/17/17
f 72/72/72  15/15/15  68/68/68
f 75/75/75  14/14/14  71/71/71
f 49/49/49  19/19/19  16/16/16
f 69/69/69  18/18/18  20/20/20
f 52/52/52  16/16/16  28/28/28
f 52/52/52  49/49/49  16/16/16
f 34/34/34  22/22/22  19/19/19
f 66/66/66  21/21/21  23/23/23
f 37/37/37  34/34/34  19/19/19
f 46/46/46  37/37/37  19/19/19
f 49/49/49  46/46/46  19/19/19
f 69/69/69  20/20/20  65/65/65
f 34/34/34  25/25/25  22/22/22
f 63/63/63  24/24/24  26/26/26
f 66/66/66  23/23/23  62/62/62
f 31/31/31  28/28/28  25/25/25
f 34/34/34  31/31/31  25/25/25
f 63/63/63  26/26/26  59/59/59
f 83/83/83  29/29/29  32/32/32
f 87/87/87  54/54/54  30/30/30
f 87/87/87  30/30/30  84/84/84
f 108/108/108  33/33/33  35/35/35
f 107/107/107  83/83/83  32/32/32
f 105/105/105  36/36/36  38/38/38
f 108/108/108  35/35/35  104/104/104
f 43/43/43  40/40/40  37/37/37
f 102/102/102  39/39/39  41/41/41
f 46/46/46  43/43/43  37/37/37
f 105/105/105  38/38/38  101/101/101
f 95/95/95  42/42/42  44/44/44
f 99/99/99  42/42/42  95/95/95
f 102/102/102  41/41/41  98/98/98
f 96/96/96  45/45/45  47/47/47
f 93/93/93  48/48/48  50/50/50
f 96/96/96  47/47/47  92/92/92
f 86/86/86  51/51/51  53/53/53
f 90/90/90  51/51/51  86/86/86
f 93/93/93  50/50/50  89/89/89
f 106/106/106  58/58/58  55/55/55
f 79/79/79  76/76/76  55/55/55
f 85/85/85  55/55/55  76/76/76
f 85/85/85  82/82/82  55/55/55
f 106/106/106  55/55/55  82/82/82
f 106/106/106  61/61/61  58/58/58
f 100/100/100  64/64/64  61/61/61
f 103/103/103  100/100/100  61/61/61
f 106/106/106  103/103/103  61/61/61
f 76/76/76  67/67/67  64/64/64
f 85/85/85  76/76/76  64/64/64
f 88/88/88  85/85/85  64/64/64
f 91/91/91  88/88/88  64/64/64
f 100/100/100  91/91/91  64/64/64
f 73/73/73  70/70/70  67/67/67
f 76/76/76  73/73/73  67/67/67
f 100/100/100  94/94/94  91/91/91
f 100/100/100  97/97/97  94/94/94
