mtllib w.mtl

v  18.662283 0.000000 -26.287970
v  18.662283 0.000000 -26.287970
v  18.662283 0.000000 -26.287970
v  0.000000 0.000000 -44.609973
v  0.000000 0.000000 -44.609973
v  0.000000 0.000000 -44.609973
v  -18.662283 0.000000 -26.287970
v  -18.662283 0.000000 -26.287970
v  -18.662283 0.000000 -26.287970
v  -36.984286 0.000000 -100.000000
v  -36.984286 0.000000 -100.000000
v  -36.984286 0.000000 -100.000000
v  -50.000000 0.000000 -100.000000
v  -50.000000 0.000000 -100.000000
v  -50.000000 0.000000 -100.000000
v  -25.000000 0.000000 0.000000
v  -25.000000 0.000000 0.000000
v  -25.000000 0.000000 0.000000
v  0.000000 0.000000 -24.544161
v  0.000000 0.000000 -24.544161
v  0.000000 0.000000 -24.544161
v  25.000000 0.000000 0.000000
v  25.000000 0.000000 0.000000
v  25.000000 0.000000 0.000000
v  50.000000 0.000000 -100.000000
v  50.000000 0.000000 -100.000000
v  50.000000 0.000000 -100.000000
v  36.984286 0.000000 -100.000000
v  36.984286 0.000000 -100.000000
v  36.984286 0.000000 -100.000000
v  0.000000 10.000000 -24.544161
v  0.000000 10.000000 -24.544161
v  0.000000 10.000000 -24.544161
v  -25.000000 10.000000 0.000000
v  -25.000000 10.000000 0.000000
v  -25.000000 10.000000 0.000000
v  -50.000000 10.000000 -100.000000
v  -50.000000 10.000000 -100.000000
v  -50.000000 10.000000 -100.000000
v  -36.984286 10.000000 -100.000000
v  -36.984286 10.000000 -100.000000
v  -36.984286 10.000000 -100.000000
v  -18.662283 10.000000 -26.287970
v  -18.662283 10.000000 -26.287970
v  -18.662283 10.000000 -26.287970
v  0.000000 10.000000 -44.609973
v  0.000000 10.000000 -44.609973
v  0.000000 10.000000 -44.609973
v  18.662283 10.000000 -26.287970
v  18.662283 10.000000 -26.287970
v  18.662283 10.000000 -26.287970
v  36.984286 10.000000 -100.000000
v  36.984286 10.000000 -100.000000
v  36.984286 10.000000 -100.000000
v  50.000000 10.000000 -100.000000
v  50.000000 10.000000 -100.000000
v  50.000000 10.000000 -100.000000
v  25.000000 10.000000 0.000000
v  25.000000 10.000000 0.000000
v  25.000000 10.000000 0.000000

vt  0.737120 0.686623 0.000000
vt  0.737120 0.686623 0.000000
vt  0.737120 0.686623 0.000000
vt  0.553900 0.500000 0.000000
vt  0.553900 0.500000 0.000000
vt  0.553900 0.500000 0.000000
vt  0.737120 0.313377 0.000000
vt  0.737120 0.313377 0.000000
vt  0.737120 0.313377 0.000000
vt  0.000000 0.130157 0.000000
vt  0.000000 0.130157 0.000000
vt  0.000000 0.130157 0.000000
vt  0.000000 0.000000 0.000000
vt  0.000000 0.000000 0.000000
vt  0.000000 0.000000 0.000000
vt  1.000000 0.250000 0.000000
vt  1.000000 0.250000 0.000000
vt  1.000000 0.250000 0.000000
vt  0.754558 0.500000 0.000000
vt  0.754558 0.500000 0.000000
vt  0.754558 0.500000 0.000000
vt  1.000000 0.750000 0.000000
vt  1.000000 0.750000 0.000000
vt  1.000000 0.750000 0.000000
vt  0.000000 1.000000 0.000000
vt  0.000000 1.000000 0.000000
vt  0.000000 1.000000 0.000000
vt  0.000000 0.869843 0.000000
vt  0.000000 0.869843 0.000000
vt  0.000000 0.869843 0.000000
vt  0.754558 0.500000 0.000000
vt  0.754558 0.500000 0.000000
vt  0.754558 0.500000 0.000000
vt  1.000000 0.250000 0.000000
vt  1.000000 0.250000 0.000000
vt  1.000000 0.250000 0.000000
vt  0.000000 0.000000 0.000000
vt  0.000000 0.000000 0.000000
vt  0.000000 0.000000 0.000000
vt  0.000000 0.130157 0.000000
vt  0.000000 0.130157 0.000000
vt  0.000000 0.130157 0.000000
vt  0.737120 0.313377 0.000000
vt  0.737120 0.313377 0.000000
vt  0.737120 0.313377 0.000000
vt  0.553900 0.500000 0.000000
vt  0.553900 0.500000 0.000000
vt  0.553900 0.500000 0.000000
vt  0.737120 0.686623 0.000000
vt  0.737120 0.686623 0.000000
vt  0.737120 0.686623 0.000000
vt  0.000000 0.869843 0.000000
vt  0.000000 0.869843 0.000000
vt  0.000000 0.869843 0.000000
vt  0.000000 1.000000 0.000000
vt  0.000000 1.000000 0.000000
vt  0.000000 1.000000 0.000000
vt  1.000000 0.750000 0.000000
vt  1.000000 0.750000 0.000000
vt  1.000000 0.750000 0.000000

vn  0.000000 -1.000000 0.000000
vn  -0.970470 0.000000 -0.241222
vn  0.700571 0.000000 -0.713582
vn  0.000000 -1.000000 0.000000
vn  0.700571 0.000000 -0.713582
vn  -0.700571 0.000000 -0.713582
vn  0.000000 -1.000000 0.000000
vn  0.970470 0.000000 -0.241222
vn  -0.700571 0.000000 -0.713582
vn  0.000000 -1.000000 0.000000
vn  0.000000 0.000000 -1.000000
vn  0.970470 0.000000 -0.241222
vn  0.000000 -1.000000 0.000000
vn  -0.970143 0.000000 0.242536
vn  0.000000 0.000000 -1.000000
vn  0.000000 -1.000000 0.000000
vn  0.700571 0.000000 0.713582
vn  -0.970143 0.000000 0.242536
vn  0.000000 -1.000000 0.000000
vn  -0.700571 0.000000 0.713582
vn  0.700571 0.000000 0.713582
vn  0.000000 -1.000000 0.000000
vn  -0.700571 0.000000 0.713582
vn  0.970143 0.000000 0.242536
vn  0.000000 -1.000000 0.000000
vn  0.970143 0.000000 0.242536
vn  0.000000 0.000000 -1.000000
vn  0.000000 -1.000000 0.000000
vn  0.000000 0.000000 -1.000000
vn  -0.970470 0.000000 -0.241222
vn  0.000000 1.000000 0.000000
vn  -0.700571 0.000000 0.713582
vn  0.700571 0.000000 0.713582
vn  0.000000 1.000000 0.000000
vn  0.700571 0.000000 0.713582
vn  -0.970143 0.000000 0.242536
vn  0.000000 1.000000 0.000000
vn  -0.970143 0.000000 0.242536
vn  0.000000 0.000000 -1.000000
vn  0.000000 1.000000 0.000000
vn  0.000000 0.000000 -1.000000
vn  0.970470 0.000000 -0.241222
vn  0.000000 1.000000 0.000000
vn  0.970470 0.000000 -0.241222
vn  -0.700571 0.000000 -0.713582
vn  0.000000 1.000000 0.000000
vn  0.700571 0.000000 -0.713582
vn  -0.700571 0.000000 -0.713582
vn  0.000000 1.000000 0.000000
vn  -0.970470 0.000000 -0.241222
vn  0.700571 0.000000 -0.713582
vn  0.000000 1.000000 0.000000
vn  0.000000 0.000000 -1.000000
vn  -0.970470 0.000000 -0.241222
vn  0.000000 1.000000 0.000000
vn  0.970143 0.000000 0.242536
vn  0.000000 0.000000 -1.000000
vn  0.000000 1.000000 0.000000
vn  -0.700571 0.000000 0.713582
vn  0.970143 0.000000 0.242536


g 0
g 1
usemtl DEFAULT_MTL
f 7/7/7  4/4/4  1/1/1
f 51/51/51  3/3/3  5/5/5
f 19/19/19  7/7/7  1/1/1
f 22/22/22  19/19/19  1/1/1
f 28/28/28  22/22/22  1/1/1
f 54/54/54  30/30/30  2/2/2
f 54/54/54  2/2/2  50/50/50
f 48/48/48  6/6/6  9/9/9
f 51/51/51  5/5/5  47/47/47
f 13/13/13  10/10/10  7/7/7
f 44/44/44  8/8/8  12/12/12
f 16/16/16  13/13/13  7/7/7
f 19/19/19  16/16/16  7/7/7
f 48/48/48  9/9/9  45/45/45
f 41/41/41  11/11/11  15/15/15
f 44/44/44  12/12/12  42/42/42
f 38/38/38  14/14/14  18/18/18
f 41/41/41  15/15/15  39/39/39
f 35/35/35  17/17/17  21/21/21
f 38/38/38  18/18/18  36/36/36
f 32/32/32  20/20/20  23/23/23
f 35/35/35  21/21/21  33/33/33
f 28/28/28  25/25/25  22/22/22
f 60/60/60  24/24/24  26/26/26
f 59/59/59  32/32/32  23/23/23
f 57/57/57  27/27/27  29/29/29
f 60/60/60  26/26/26  56/56/56
f 57/57/57  29/29/29  53/53/53
f 43/43/43  34/34/34  31/31/31
f 49/49/49  43/43/43  31/31/31
f 58/58/58  49/49/49  31/31/31
f 40/40/40  37/37/37  34/34/34
f 43/43/43  40/40/40  34/34/34
f 49/49/49  46/46/46  43/43/43
f 55/55/55  52/52/52  49/49/49
f 58/58/58  55/55/55  49/49/49
